<?xml version="1.0" encoding="UTF-8" standalone="no"?>
<!-- Generator: Adobe Illustrator 18.1.1, SVG Export Plug-In . SVG Version: 6.00 Build 0)  -->

<svg
   xmlns:dc="http://purl.org/dc/elements/1.1/"
   xmlns:cc="http://creativecommons.org/ns#"
   xmlns:rdf="http://www.w3.org/1999/02/22-rdf-syntax-ns#"
   xmlns:svg="http://www.w3.org/2000/svg"
   xmlns="http://www.w3.org/2000/svg"
   xmlns:sodipodi="http://sodipodi.sourceforge.net/DTD/sodipodi-0.dtd"
   xmlns:inkscape="http://www.inkscape.org/namespaces/inkscape"
   version="1.1"
   id="Capa_1"
   x="0px"
   y="0px"
   viewBox="0 0 29.978 29.978"
   style="enable-background:new 0 0 29.978 29.978;"
   xml:space="preserve"
   inkscape:version="0.91 r13725"
   sodipodi:docname="restore_local_storage.svg"><metadata
     id="metadata4318"><rdf:RDF><cc:Work
         rdf:about=""><dc:format>image/svg+xml</dc:format><dc:type
           rdf:resource="http://purl.org/dc/dcmitype/StillImage" /><dc:title></dc:title></cc:Work></rdf:RDF></metadata><defs
     id="defs4316" /><sodipodi:namedview
     pagecolor="#ffffff"
     bordercolor="#666666"
     borderopacity="1"
     objecttolerance="10"
     gridtolerance="10"
     guidetolerance="10"
     inkscape:pageopacity="0"
     inkscape:pageshadow="2"
     inkscape:window-width="1916"
     inkscape:window-height="1041"
     id="namedview4314"
     showgrid="false"
     inkscape:zoom="29.321502"
     inkscape:cx="14.989"
     inkscape:cy="14.989"
     inkscape:window-x="0"
     inkscape:window-y="18"
     inkscape:window-maximized="0"
     inkscape:current-layer="g4248" /><g
     id="g4248"><path
       d="M25.462,19.105v6.848H4.515v-6.848H0.489v8.861c0,1.111,0.9,2.012,2.016,2.012h24.967c1.115,0,2.016-0.9,2.016-2.012   v-8.861H25.462z"
       id="path4250" /><path
       d="m 15.353107,0.2639081 5.764,6.965 c 0,0 0.877,0.828 -0.074,0.828 -0.951,0 -3.248,0 -3.248,0 0,0 0,0.557 0,1.416 0,2.4489999 0,6.9059999 0,8.7229999 0,0 0.129,0.494 -0.615,0.494 -0.75,0 -4.035,0 -4.572,0 -0.536,0 -0.524,-0.416 -0.524,-0.416 0,-1.762 0,-6.373 0,-8.7419999 0,-0.768 0,-1.266 0,-1.266 0,0 -1.842,0 -2.9979999,0 -1.154,0 -0.285,-0.867 -0.285,-0.867 0,0 4.9039999,-6.51 5.5879999,-7.193 0.492,-0.495 0.964,0.058 0.964,0.058 z"
       id="path4252"
       inkscape:connector-curvature="0" /><g
       id="g4254" /><g
       id="g4256" /><g
       id="g4258" /><g
       id="g4260" /><g
       id="g4262" /><g
       id="g4264" /><g
       id="g4266" /><g
       id="g4268" /><g
       id="g4270" /><g
       id="g4272" /><g
       id="g4274" /><g
       id="g4276" /><g
       id="g4278" /><g
       id="g4280" /><g
       id="g4282" /></g><g
     id="g4284" /><g
     id="g4286" /><g
     id="g4288" /><g
     id="g4290" /><g
     id="g4292" /><g
     id="g4294" /><g
     id="g4296" /><g
     id="g4298" /><g
     id="g4300" /><g
     id="g4302" /><g
     id="g4304" /><g
     id="g4306" /><g
     id="g4308" /><g
     id="g4310" /><g
     id="g4312" /></svg>